<svg xmlns="http://www.w3.org/2000/svg" viewBox="0 0 45 39" width="45" height="39">
	<style>
		tspan { white-space:pre }
		.shp0 { fill: #3cc3b5 } 
	</style>
	<g id="HDR">
		<g id="CART">
			<path id="Shape 2" class="shp0" d="M21.9 1.01C20.43 1.01 19.23 2.02 18.96 3.39L18.88 3.39L9.23 14.13L14.06 14.13L20.73 6.71C21.09 6.86 21.48 6.97 21.9 6.97C22.32 6.97 22.7 6.86 23.07 6.71L29.74 14.13L34.57 14.13L24.91 3.39L24.83 3.39C24.57 2.02 23.37 1.01 21.9 1.01L21.9 1.01ZM4.41 16.51C3.07 16.51 1.99 17.58 1.99 18.9L1.99 20.1C1.99 21.36 2.97 22.35 4.22 22.45L8.02 35.6C9.23 37.99 10.44 37.99 11.64 37.99L33.36 37.99C34.57 37.99 35.77 37.99 36.98 35.6L40.79 22.45C42.03 22.35 43.01 21.36 43.01 20.1L43.01 18.9C43.01 17.58 41.94 16.51 40.6 16.51L4.41 16.51L4.41 16.51ZM11.19 22.48L11.79 22.48C13.13 22.48 14.45 23.48 14.73 24.72L16.43 32.14C16.71 33.38 15.85 34.41 14.51 34.41L13.9 34.41C12.57 34.41 11.25 33.38 10.96 32.14L9.27 24.72C8.98 23.48 9.86 22.48 11.19 22.48L11.19 22.48ZM22.5 22.48C23.84 22.48 24.91 23.55 24.91 24.87L24.91 32.03C24.91 33.35 23.84 34.41 22.5 34.41C21.17 34.41 20.09 33.35 20.09 32.03L20.09 24.87C20.09 23.55 21.17 22.48 22.5 22.48L22.5 22.48ZM33.21 22.48L33.81 22.48C35.15 22.48 36.02 23.48 35.73 24.72L34.04 32.14C33.75 33.38 32.44 34.41 31.1 34.41L30.49 34.41C29.15 34.41 28.29 33.38 28.57 32.14L30.27 24.72C30.55 23.48 31.87 22.48 33.21 22.48L33.21 22.48Z" />
		</g>
	</g>
</svg>